<?xml version="1.0" encoding="UTF-8" standalone="no" ?>
<!DOCTYPE svg PUBLIC "-//W3C//DTD SVG 1.1//EN" "http://www.w3.org/Graphics/SVG/1.1/DTD/svg11.dtd">
<svg xmlns="http://www.w3.org/2000/svg" xmlns:xlink="http://www.w3.org/1999/xlink" version="1.1" width="64" height="64" viewBox="0 0 120 120" xml:space="preserve">
<desc>Created with Fabric.js 4.6.0</desc>
    <defs>
</defs>
    <g transform="matrix(2.76 0 0 2.76 60 60.04)" id="Qifclr9yyj6ArNrSyBYH-"  >
<path style="stroke: none; stroke-width: 1; stroke-dasharray: none; stroke-linecap: butt; stroke-dashoffset: 0; stroke-linejoin: miter; stroke-miterlimit: 4; fill: rgb(0,173,238); fill-rule: nonzero; opacity: 1;" vector-effect="non-scaling-stroke"  transform=" translate(-8.11, -21.47)" d="M 9.73 25.629 L 9.73 28.649 C 9.73 29.506 9.02 30.261000000000003 8.108 30.261000000000003 C 7.6776138874597 30.26803179336495 7.262634725976417 30.100920820246937 6.95723134792381 29.79758861183587 C 6.651827969871203 29.494256403424803 6.481897037817005 29.0804239975731 6.486000000000001 28.650000000000002 L 6.486000000000001 23.866000000000003 L 0 23.866000000000003 L 0 28.650000000000002 C 0 33.03 3.598 36.605000000000004 8.108 36.605000000000004 C 12.567 36.605000000000004 16.215 33.03 16.215 28.650000000000006 L 16.215 25.478000000000005 C 16.215 17.522000000000006 6.486000000000001 15.911000000000005 6.486000000000001 11.078000000000005 L 6.486000000000001 7.955 C 6.486000000000001 7.099 7.196000000000001 6.343 8.108 6.343 C 9.020000000000001 6.343 9.729000000000001 7.048 9.729000000000001 7.954 L 9.729000000000001 12.738 L 16.215 12.738 L 16.215 7.955 C 16.165 3.575 12.567 0 8.108 0 C 3.598 0 0 3.575 0 7.955 L 0 11.128 C 0 19.083 9.73 20.694000000000003 9.73 25.628 z M 16.165 39.778 L 0 39.778 L 0 42.949999999999996 L 16.165 42.949999999999996 L 16.165 39.778 z" stroke-linecap="round" />
</g>
</svg>